<svg width="23" height="20" viewBox="0 0 23 20" fill="none" xmlns="http://www.w3.org/2000/svg">
<path fill-rule="evenodd" clip-rule="evenodd" d="M13.2506 1.66663C13.6401 1.66672 14.0197 1.77686 14.3356 1.98147C14.6515 2.18607 14.8878 2.47475 15.0108 2.80663L15.5147 4.16663H18.5583C18.8044 4.16663 19.0404 4.25442 19.2144 4.4107C19.3884 4.56698 19.4862 4.77895 19.4862 4.99996C19.4862 5.22097 19.3884 5.43293 19.2144 5.58922C19.0404 5.7455 18.8044 5.83329 18.5583 5.83329L18.5555 5.89246L17.751 16.0116C17.7008 16.6421 17.3865 17.2322 16.8714 17.6629C16.3562 18.0937 15.6785 18.3332 14.9747 18.3333H7.29522C6.59136 18.3332 5.91365 18.0937 5.39853 17.6629C4.8834 17.2322 4.5691 16.6421 4.5189 16.0116L3.71439 5.89163C3.71271 5.87222 3.71178 5.85276 3.71161 5.83329C3.46551 5.83329 3.22949 5.7455 3.05547 5.58922C2.88145 5.43293 2.78369 5.22097 2.78369 4.99996C2.78369 4.77895 2.88145 4.56698 3.05547 4.4107C3.22949 4.25442 3.46551 4.16663 3.71161 4.16663H6.75517L7.25903 2.80663C7.38217 2.47462 7.61854 2.18584 7.93465 1.98122C8.25076 1.77661 8.63056 1.66654 9.02022 1.66663H13.2506ZM8.35119 8.33329C8.12391 8.33332 7.90455 8.40826 7.73471 8.54389C7.56487 8.67952 7.45636 8.86642 7.42977 9.06913L7.42327 9.16663V14.1666C7.42354 14.379 7.5141 14.5833 7.67646 14.7378C7.83881 14.8922 8.06071 14.9852 8.29681 14.9976C8.53291 15.0101 8.76539 14.9411 8.94676 14.8047C9.12812 14.6684 9.24468 14.475 9.27261 14.2641L9.27911 14.1666V9.16663C9.27911 8.94561 9.18135 8.73365 9.00733 8.57737C8.83331 8.42109 8.59729 8.33329 8.35119 8.33329ZM13.9187 8.33329C13.6726 8.33329 13.4366 8.42109 13.2626 8.57737C13.0885 8.73365 12.9908 8.94561 12.9908 9.16663V14.1666C12.9908 14.3876 13.0885 14.5996 13.2626 14.7559C13.4366 14.9122 13.6726 15 13.9187 15C14.1648 15 14.4008 14.9122 14.5748 14.7559C14.7488 14.5996 14.8466 14.3876 14.8466 14.1666V9.16663C14.8466 8.94561 14.7488 8.73365 14.5748 8.57737C14.4008 8.42109 14.1648 8.33329 13.9187 8.33329ZM13.2506 3.33329H9.01929L8.7103 4.16663H13.5596L13.2506 3.33329Z" fill="#FF0404"/>
</svg>
