<svg width="37" height="31" viewBox="0 0 37 31" fill="none" xmlns="http://www.w3.org/2000/svg">
<path d="M24.2966 17.5707L34.3242 25.7752L24.2966 17.5707Z" fill="white"/>
<path d="M24.2966 17.5707L34.3242 25.7752" stroke="#617A55" stroke-width="3"/>
<path d="M21.031 20.2423L31.0586 28.4467L21.031 20.2423Z" fill="white"/>
<path d="M21.031 20.2423L31.0586 28.4467" stroke="#617A55" stroke-width="3"/>
<path d="M31.059 28.4467C31.492 28.801 32.0793 29 32.6916 29C33.304 29 33.8912 28.801 34.3242 28.4467" fill="white"/>
<path d="M31.059 28.4467C31.492 28.801 32.0793 29 32.6916 29C33.304 29 33.8912 28.801 34.3242 28.4467" stroke="#617A55" stroke-width="3" stroke-linecap="round" stroke-linejoin="round"/>
<path d="M34.3238 25.7752C34.7567 26.1295 35 26.61 35 27.111C35 27.612 34.7567 28.0925 34.3238 28.4467" fill="white"/>
<path d="M34.3238 25.7752C34.7567 26.1295 35 26.61 35 27.111C35 27.612 34.7567 28.0925 34.3238 28.4467" stroke="#617A55" stroke-width="3" stroke-linecap="round" stroke-linejoin="round"/>
<path d="M2.00023 10.5007C2.00023 11.6171 2.26897 12.7225 2.7911 13.7538C3.31324 14.7852 4.07854 15.7223 5.04333 16.5116C6.0081 17.301 7.15347 17.9272 8.41401 18.3544C9.67456 18.7816 11.0256 19.0015 12.39 19.0015C13.7544 19.0015 15.1055 18.7816 16.366 18.3544C17.6265 17.9272 18.7719 17.301 19.7367 16.5116C20.7015 15.7223 21.4668 14.7852 21.9889 13.7538C22.511 12.7225 22.7798 11.6171 22.7798 10.5007C22.7798 8.24619 21.6852 6.084 19.7367 4.48981C17.7882 2.89561 15.1455 2 12.39 2C11.0256 2 9.67456 2.21988 8.41401 2.64708C7.15347 3.07428 6.0081 3.70044 5.04333 4.48981C4.07854 5.27917 3.31324 6.21628 2.7911 7.24764C2.26897 8.279 2.00023 9.3844 2.00023 10.5007Z" fill="white" stroke="#617A55" stroke-width="3" stroke-linecap="round" stroke-linejoin="round"/>
<path d="M24.2964 17.5707L21.0312 20.2423L24.2964 17.5707Z" fill="white"/>
<path d="M24.2964 17.5707L21.0312 20.2423" stroke="#617A55" stroke-width="3" stroke-linecap="round" stroke-linejoin="round"/>
<path d="M22.6636 18.9065L19.7365 16.5117Z" fill="white"/>
<path d="M22.6636 18.9065L19.7365 16.5117" stroke="#617A55" stroke-width="3" stroke-linecap="round" stroke-linejoin="round"/>
<path d="M27.083 19.851L23.8178 22.5225L27.083 19.851Z" fill="white"/>
<path d="M27.083 19.851L23.8178 22.5225" stroke="#617A55" stroke-width="3" stroke-linecap="round" stroke-linejoin="round"/>
<path d="M6.61755 10.5007C6.61755 11.7533 7.22568 12.9545 8.30816 13.8401C9.39064 14.7258 10.8588 15.2234 12.3896 15.2234" fill="white"/>
<path d="M6.61755 10.5007C6.61755 11.7533 7.22568 12.9545 8.30816 13.8401C9.39064 14.7258 10.8588 15.2234 12.3896 15.2234" stroke="#617A55" stroke-width="3" stroke-linecap="round" stroke-linejoin="round"/>
</svg>
